<svg width="24" height="24" viewBox="0 0 24 24" fill="none" xmlns="http://www.w3.org/2000/svg">
<path d="M2 6C2 4.59987 2 3.8998 2.27248 3.36502C2.51217 2.89462 2.89462 2.51217 3.36502 2.27248C3.8998 2 4.59987 2 6 2C7.40013 2 8.1002 2 8.63498 2.27248C9.10538 2.51217 9.48783 2.89462 9.72752 3.36502C10 3.8998 10 4.59987 10 6C10 7.40013 10 8.1002 9.72752 8.63498C9.48783 9.10538 9.10538 9.48783 8.63498 9.72752C8.1002 10 7.40013 10 6 10C4.59987 10 3.8998 10 3.36502 9.72752C2.89462 9.48783 2.51217 9.10538 2.27248 8.63498C2 8.1002 2 7.40013 2 6Z" stroke="white" stroke-width="1.5"/>
<path d="M2 18C2 16.5999 2 15.8998 2.27248 15.365C2.51217 14.8946 2.89462 14.5122 3.36502 14.2725C3.8998 14 4.59987 14 6 14C7.40013 14 8.1002 14 8.63498 14.2725C9.10538 14.5122 9.48783 14.8946 9.72752 15.365C10 15.8998 10 16.5999 10 18C10 19.4001 10 20.1002 9.72752 20.635C9.48783 21.1054 9.10538 21.4878 8.63498 21.7275C8.1002 22 7.40013 22 6 22C4.59987 22 3.8998 22 3.36502 21.7275C2.89462 21.4878 2.51217 21.1054 2.27248 20.635C2 20.1002 2 19.4001 2 18Z" stroke="white" stroke-width="1.5"/>
<path d="M14 18C14 16.5999 14 15.8998 14.2725 15.365C14.5122 14.8946 14.8946 14.5122 15.365 14.2725C15.8998 14 16.5999 14 18 14C19.4001 14 20.1002 14 20.635 14.2725C21.1054 14.5122 21.4878 14.8946 21.7275 15.365C22 15.8998 22 16.5999 22 18C22 19.4001 22 20.1002 21.7275 20.635C21.4878 21.1054 21.1054 21.4878 20.635 21.7275C20.1002 22 19.4001 22 18 22C16.5999 22 15.8998 22 15.365 21.7275C14.8946 21.4878 14.5122 21.1054 14.2725 20.635C14 20.1002 14 19.4001 14 18Z" stroke="white" stroke-width="1.5"/>
<path d="M20.6657 5.14116L17.3579 8.449L18.4185 9.50966L21.7264 6.20182L20.6657 5.14116ZM15.5509 6.64205L18.8587 3.33421L17.7981 2.27355L14.4902 5.58138L15.5509 6.64205ZM15.1908 9.1223C15.0154 9.15981 14.8752 9.18973 14.7547 9.21212C14.6332 9.23472 14.5535 9.2454 14.4995 9.24884C14.444 9.25237 14.4478 9.24579 14.4824 9.25471C14.5295 9.26685 14.5935 9.29719 14.6481 9.35178L13.5875 10.4124C13.9112 10.7362 14.3157 10.7636 14.5947 10.7458C14.8602 10.7289 15.1838 10.6577 15.5044 10.5891L15.1908 9.1223ZM13.4108 8.49546C13.3422 8.8161 13.271 9.13973 13.2541 9.40523C13.2363 9.68419 13.2637 10.0887 13.5875 10.4124L14.6481 9.35178C14.7027 9.40637 14.733 9.47039 14.7452 9.51747C14.7541 9.55207 14.7475 9.55591 14.7511 9.50044C14.7545 9.44641 14.7652 9.36674 14.7878 9.24519C14.8102 9.12473 14.8401 8.98455 14.8776 8.80911L13.4108 8.49546ZM20.6657 3.33421C21.0332 3.7017 21.1083 3.78597 21.1466 3.85229L22.4457 3.10229C22.2838 2.82184 22.0256 2.57275 21.7264 2.27355L20.6657 3.33421ZM21.7264 6.20182C22.0256 5.90261 22.2838 5.65353 22.4457 5.37307L21.1466 4.62307C21.1083 4.6894 21.0332 4.77367 20.6657 5.14116L21.7264 6.20182ZM21.1466 3.85229C21.2843 4.09077 21.2843 4.38459 21.1466 4.62307L22.4457 5.37307C22.8513 4.67049 22.8513 3.80488 22.4457 3.10229L21.1466 3.85229ZM21.7264 2.27355C21.4271 1.97434 21.1781 1.71615 20.8976 1.55423L20.1476 2.85326C20.2139 2.89156 20.2982 2.96671 20.6657 3.33421L21.7264 2.27355ZM18.8587 3.33421C19.2262 2.96672 19.3105 2.89156 19.3768 2.85326L18.6268 1.55423C18.3464 1.71615 18.0973 1.97434 17.7981 2.27355L18.8587 3.33421ZM20.8976 1.55423C20.195 1.14859 19.3294 1.14859 18.6268 1.55423L19.3768 2.85326C19.6153 2.71557 19.9091 2.71557 20.1476 2.85326L20.8976 1.55423ZM17.3579 8.449C17.1623 8.64453 16.8951 8.77096 16.5154 8.8679C16.3252 8.91646 16.1223 8.954 15.8962 8.99307C15.6789 9.03061 15.4302 9.07112 15.1908 9.1223L15.5044 10.5891C15.7062 10.546 15.913 10.5124 16.1516 10.4712C16.3813 10.4315 16.6345 10.3856 16.8865 10.3213C17.3913 10.1924 17.9532 9.97497 18.4185 9.50966L17.3579 8.449ZM14.8776 8.80911C14.9288 8.56974 14.9693 8.32097 15.0068 8.1037C15.0459 7.87757 15.0834 7.67468 15.132 7.48447C15.2289 7.10477 15.3554 6.83758 15.5509 6.64205L14.4902 5.58138C14.0249 6.0467 13.8075 6.60863 13.6786 7.11341C13.6143 7.36544 13.5684 7.61864 13.5287 7.84832C13.4875 8.08687 13.4539 8.29366 13.4108 8.49546L14.8776 8.80911Z" fill="white"/>
</svg>
